<svg width="47" height="70" viewBox="0 0 47 70" fill="none" xmlns="http://www.w3.org/2000/svg">
<g clip-path="url(#clip0_13_177)">
<path d="M11.6713 70C18.1113 70 23.338 64.7733 23.338 58.3333V46.6667H11.6713C5.23131 46.6667 0.00463867 51.8933 0.00463867 58.3333C0.00463867 64.7733 5.23131 70 11.6713 70Z" fill="#0ACF83"/>
<path d="M0.00463867 35C0.00463867 28.56 5.23131 23.3333 11.6713 23.3333H23.338V46.6667H11.6713C5.23131 46.6667 0.00463867 41.44 0.00463867 35Z" fill="#A259FF"/>
<path d="M0.00463867 11.6667C0.00463867 5.22667 5.23131 0 11.6713 0H23.338V23.3333H11.6713C5.23131 23.3333 0.00463867 18.1067 0.00463867 11.6667Z" fill="#F24E1E"/>
<path d="M23.338 0H35.0047C41.4447 0 46.6713 5.22667 46.6713 11.6667C46.6713 18.1067 41.4447 23.3333 35.0047 23.3333H23.338V0Z" fill="#FF7262"/>
<path d="M46.6713 35C46.6713 41.44 41.4447 46.6667 35.0047 46.6667C28.5647 46.6667 23.338 41.44 23.338 35C23.338 28.56 28.5647 23.3333 35.0047 23.3333C41.4447 23.3333 46.6713 28.56 46.6713 35Z" fill="#1ABCFE"/>
</g>
<defs>
<clipPath id="clip0_13_177">
<rect width="46.676" height="70" fill="white"/>
</clipPath>
</defs>
</svg>
