<svg width="51" height="70" viewBox="0 0 51 70" fill="none" xmlns="http://www.w3.org/2000/svg">
<g clip-path="url(#clip0_13_170)">
<path d="M33.1839 25.2838L26.1834 31.8019L19.6851 18.689L23.042 11.1493C23.8905 9.64529 25.2781 9.62543 26.1266 11.1493L33.1839 25.2838Z" fill="#FFA000"/>
<path d="M26.1862 31.7991L0 56.1549L19.6879 18.689L26.1862 31.7991Z" fill="#F57F17"/>
<path d="M40.8598 15.315C42.1141 14.1203 43.4052 14.5233 43.7316 16.2202L50.5392 55.8258L27.9597 69.3814C27.168 69.8241 25.0681 69.9972 25.0681 69.9972C25.0681 69.9972 23.1583 69.7645 22.4262 69.3615L0 56.1549L40.8598 15.315Z" fill="#FFCA28"/>
<path d="M19.6879 18.689L0 56.1549L8.77412 1.39331C9.10329 -0.303627 10.0653 -0.476726 10.9336 1.02725L19.6879 18.689Z" fill="#FFA000"/>
</g>
<defs>
<clipPath id="clip0_13_170">
<rect width="50.5392" height="70" fill="white"/>
</clipPath>
</defs>
</svg>
