<svg width="70" height="70" viewBox="0 0 70 70" fill="none" xmlns="http://www.w3.org/2000/svg">
<g clip-path="url(#clip0_11_137)">
<path d="M4.40753 2.31728L8.95067 60.4386C9.01887 61.3113 9.60964 62.0556 10.4442 62.3202L34.3503 69.8996C34.7731 70.0335 35.2269 70.0335 35.6497 69.8996L59.5558 62.3202C60.3903 62.0556 60.9811 61.3113 61.0493 60.4386L65.5925 2.31728C65.6902 1.0677 64.7026 0 63.4493 0H6.55084C5.29755 0 4.30998 1.0677 4.40753 2.31728ZM53.9419 20.3504H24.3334L25.2269 28.5903H53.2979L51.4616 52.0812L35.0001 57.3003L18.5386 52.0812L17.5792 39.8086H26.2195V45.8285L35.231 48.247L44.1886 45.8285L44.8835 36.2345H17.2998L15.4685 12.8052H54.5315L53.9419 20.3504Z" fill="#FC490B"/>
</g>
<defs>
<clipPath id="clip0_11_137">
<rect width="70" height="70" fill="white"/>
</clipPath>
</defs>
</svg>
