<svg width="70" height="70" viewBox="0 0 70 70" fill="none" xmlns="http://www.w3.org/2000/svg">
<g clip-path="url(#clip0_11_159)">
<path d="M70 0H0V70H70V0Z" fill="#F7DF1E"/>
<path d="M18.4105 58.4937L23.7617 55.2521C24.7967 57.0938 25.7373 58.6277 27.9808 58.6277C30.1478 58.6277 31.5095 57.7842 31.5095 54.4852V32.1426H38.0871V54.6C38.0871 61.4086 34.0976 64.5148 28.2679 64.5148C23.0138 64.5148 19.965 61.7914 18.4105 58.4937Z" fill="black"/>
<path d="M41.6746 57.7842L47.0257 54.6779C48.4449 56.9789 50.2673 58.6674 53.5076 58.6674C56.231 58.6674 57.9755 57.3057 57.9755 55.4258C57.9755 53.1631 56.1914 52.377 53.1808 51.0535L51.532 50.344C46.7947 48.3301 43.631 45.7789 43.631 40.4291C43.631 35.5004 47.3894 31.742 53.2587 31.742C57.4396 31.742 60.4501 33.1994 62.6171 36.9975L57.497 40.2774C56.365 38.2635 55.1578 37.4582 53.2779 37.4582C51.3597 37.4582 50.1333 38.686 50.1333 40.2774C50.1333 42.2529 51.3611 43.0582 54.1802 44.2668L55.8291 44.9764C61.4291 47.3731 64.5736 49.8094 64.5736 55.3137C64.5736 61.2391 59.9128 64.4807 53.6798 64.4807C47.5425 64.5149 43.5914 61.6 41.6746 57.7842Z" fill="black"/>
</g>
<defs>
<clipPath id="clip0_11_159">
<rect width="70" height="70" fill="white"/>
</clipPath>
</defs>
</svg>
