<svg width="70" height="70" viewBox="0 0 70 70" fill="none" xmlns="http://www.w3.org/2000/svg">
<g clip-path="url(#clip0_11_164)">
<path d="M0 0H70V70H0V0Z" fill="#010409"/>
<path d="M34.9458 40.8111C38.1787 40.8111 40.7995 38.1903 40.7995 34.9574C40.7995 31.7246 38.1787 29.1038 34.9458 29.1038C31.7129 29.1038 29.0922 31.7246 29.0922 34.9574C29.0922 38.1903 31.7129 40.8111 34.9458 40.8111Z" fill="#00D8FF"/>
<path d="M34.9458 23.0567C42.8035 23.0567 50.1041 24.1845 55.6076 26.0783C62.2389 28.361 66.3168 31.8217 66.3168 34.9555C66.3168 38.2209 61.9952 41.8982 54.8745 44.2563C49.4909 46.0399 42.405 46.9723 34.9458 46.9723C27.297 46.9723 20.0563 46.0979 14.6108 44.237C7.72227 41.8828 3.57288 38.159 3.57288 34.9555C3.57288 31.8468 7.46692 28.4132 14.0054 26.1344C19.5302 24.2096 27.0107 23.0567 34.9458 23.0567Z" stroke="#00D8FF" stroke-width="3" stroke-miterlimit="10"/>
<path d="M24.5869 29.0419C28.5119 22.2346 33.1371 16.4738 37.5283 12.6532C42.819 8.04924 47.8544 6.24633 50.5684 7.8113C53.3966 9.44204 54.4238 15.0229 52.9091 22.3719C51.7639 27.9276 49.0325 34.5299 45.3048 40.9929C41.4843 47.6184 37.1085 53.4546 32.7773 57.2423C27.297 62.0339 21.9966 63.7672 19.2226 62.1674C16.5299 60.614 15.5007 55.5264 16.791 48.723C17.8821 42.9699 20.6212 35.915 24.5869 29.0419Z" stroke="#00D8FF" stroke-width="3" stroke-miterlimit="10"/>
<path d="M24.5965 41.0065C20.6599 34.2049 17.9787 27.3222 16.8606 21.6097C15.5142 14.727 16.466 9.46332 19.1781 7.89448C22.0043 6.25794 27.3511 8.15563 32.961 13.1368C37.2033 16.9032 41.5577 22.5673 45.2951 29.0245C49.1272 35.6442 51.9999 42.349 53.1161 47.9918C54.5302 55.1337 53.385 60.5908 50.6129 62.1945C47.9221 63.7517 43.0008 62.1036 37.7507 57.5866C33.317 53.77 28.5718 47.8738 24.5965 41.0065Z" stroke="#00D8FF" stroke-width="3" stroke-miterlimit="10"/>
</g>
<defs>
<clipPath id="clip0_11_164">
<rect width="70" height="70" fill="white"/>
</clipPath>
</defs>
</svg>
