<svg width="70" height="70" viewBox="0 0 70 70" fill="none" xmlns="http://www.w3.org/2000/svg">
<g clip-path="url(#clip0_13_183)">
<path d="M48.501 48.1756C51.0905 47.9076 53.0456 45.6818 52.9499 43.0172C52.8542 40.3512 50.6297 38.2033 47.9637 38.2033H47.7915C45.0297 38.299 42.901 40.6 42.9776 43.3617C43.0733 44.7043 43.6106 45.8555 44.3967 46.6607C41.367 52.6244 36.7446 56.998 29.7829 60.6416C25.0647 63.1354 20.1551 64.0363 15.2647 63.4033C11.2561 62.866 8.13072 61.0832 6.17427 58.1492C3.31685 53.777 3.04888 49.0588 5.4647 44.3406C7.15181 40.9459 9.83697 38.4535 11.5254 37.2066C11.1604 36.0555 10.6436 34.0812 10.3743 32.6621C-2.53198 42.0205 -1.20854 54.6588 2.72212 60.643C5.65611 65.0918 11.6211 67.8535 18.2178 67.8535C20.002 67.8535 21.7848 67.6813 23.569 67.2205C34.9618 65.0139 43.6106 58.2436 48.501 48.1756ZM64.1881 37.1287C57.4178 29.2086 47.4456 24.835 36.035 24.835H34.6159C33.8106 23.2244 32.1221 22.1689 30.2436 22.1689H30.0713C27.3096 22.2646 25.1809 24.5656 25.2575 27.3273C25.3532 29.9934 27.5776 32.1412 30.2436 32.1412H30.4159C32.3723 32.0455 34.0594 30.7986 34.7881 29.1115H36.3987C43.169 29.1115 49.5743 31.068 55.3657 34.9029C59.8145 37.8369 63.0178 41.6732 64.8006 46.3135C66.3155 50.0527 66.2198 53.7168 64.6284 56.823C62.1346 61.5412 57.9538 64.1293 52.4317 64.1293C48.8647 64.1293 45.4891 63.0547 43.7063 62.2494C42.7288 63.1313 40.9446 64.5695 39.6977 65.4527C43.5327 67.2369 47.4456 68.2145 51.1848 68.2145C59.7379 68.2145 66.0667 63.4963 68.4647 58.7795C71.035 53.6225 70.8627 44.7043 64.1881 37.1287ZM18.9288 49.6904C19.0245 52.3564 21.2489 54.5043 23.9149 54.5043H24.0872C26.8489 54.4086 28.9776 52.1076 28.901 49.3459C28.8053 46.6799 26.5809 44.532 23.9149 44.532H23.7426C23.5704 44.532 23.301 44.532 23.1096 44.6277C19.4661 38.567 17.9512 31.9703 18.468 24.8555C18.8331 19.5043 20.5967 14.8832 23.7221 11.0469C26.3116 7.74785 31.2977 6.15645 34.6733 6.06074C44.1083 5.88848 48.1168 17.6436 48.3862 22.3617C49.5374 22.6297 51.5116 23.2436 52.835 23.7043C51.7618 9.28184 42.8627 1.78418 34.3096 1.78418C26.2938 1.78418 18.8905 7.57559 15.9565 16.1287C11.8522 27.5393 14.5374 38.4904 19.5235 47.1201C19.101 47.734 18.8331 48.7129 18.9288 49.6904Z" fill="#764ABC"/>
</g>
<defs>
<clipPath id="clip0_13_183">
<rect width="70" height="70" fill="white"/>
</clipPath>
</defs>
</svg>
