<svg width="70" height="70" viewBox="0 0 70 70" fill="none" xmlns="http://www.w3.org/2000/svg">
<path d="M35.3741 40.9063C34.3219 41.3897 33.1691 42.0197 30.8613 43.2863C29.9863 43.7784 29.0719 44.2706 28.221 44.7344C28.1619 44.6753 28.1007 44.6009 28.0416 44.5397C23.4763 39.6616 15.0325 36.2163 15.3913 29.6647C15.5247 27.2781 16.345 21.0131 31.6072 13.405C44.1679 7.21438 54.1625 8.92938 55.8885 12.7334C58.3691 18.1563 50.5313 28.2472 37.5594 29.7106C36.1237 30.0018 34.641 29.9667 33.2207 29.6077C31.8005 29.2488 30.479 28.5752 29.3541 27.6369C28.6672 26.8909 28.5644 26.8472 28.3107 26.9959C27.8929 27.2147 28.1619 27.8906 28.3107 28.2778C28.8055 29.1737 29.4749 29.9613 30.2793 30.594C31.0837 31.2267 32.0069 31.6917 32.9941 31.9616C38.0989 33.0649 43.4212 32.5377 48.2103 30.4544C56.0722 27.4116 62.2104 18.9525 60.4122 11.8606C58.6075 4.67032 46.6725 2.29907 35.3807 6.31094C28.3091 8.69399 21.7756 12.4454 16.1525 17.3513C9.93129 23.17 8.94691 28.2275 9.34941 30.345C10.7975 37.8634 21.1619 42.7569 25.3182 46.3816C25.0994 46.5019 24.9157 46.6003 24.7516 46.6944C22.6778 47.7247 14.7722 51.8569 12.8013 56.2275C10.5635 61.18 13.16 64.7303 14.875 65.2072C17.4595 65.8263 20.1729 65.6228 22.6361 64.6251C25.0993 63.6274 27.1895 61.8853 28.6147 59.6422C29.825 57.7821 30.5682 55.6572 30.7811 53.4483C30.994 51.2394 30.6703 49.0117 29.8375 46.9547C30.3289 46.5628 30.8529 46.2137 31.4038 45.9113C32.4625 45.2856 33.471 44.6688 34.3657 44.1919C37.429 42.757 40.772 42.0182 44.1547 42.0284C51.2553 42.8641 52.6575 47.2938 52.3885 49.1597C52.2626 49.8217 51.9964 50.4491 51.6077 50.9996C51.2191 51.5501 50.717 52.011 50.1353 52.3513C49.6432 52.6641 49.4791 52.7691 49.5228 52.9922C49.5819 53.3203 49.8203 53.305 50.2382 53.2459C51.305 52.9088 52.2449 52.2568 52.9343 51.3756C53.6238 50.4945 54.0306 49.4254 54.1013 48.3088C54.32 43.9338 50.1485 39.1344 42.7635 39.1781C40.5522 39.1819 38.363 39.6181 36.3191 40.4622C35.991 40.5978 35.6723 40.7437 35.3632 40.8997L35.3741 40.9063ZM24.8194 58.0541C22.4613 60.62 19.18 61.5891 17.7625 60.7688C16.2313 59.8938 16.8372 56.0984 19.7313 53.3838C21.4453 51.8394 23.2979 50.4562 25.2657 49.2516C25.6091 49.0328 26.1166 48.7441 26.7269 48.3766C26.8319 48.3175 26.891 48.2869 26.891 48.2869L27.2497 48.0681C27.7659 49.7987 27.8128 51.6353 27.3858 53.39C26.9588 55.1446 26.0731 56.7543 24.8194 58.0541Z" fill="#CD6799"/>
</svg>
